<svg xmlns="http://www.w3.org/2000/svg" width="160" height="160" fill="none" stroke="#c4956a" stroke-width="1.2" stroke-linecap="round" stroke-linejoin="round">
  <!-- file doc -->
  <path d="M20 14h10l5 5v13a2 2 0 0 1-2 2H20a2 2 0 0 1-2-2V16a2 2 0 0 1 2-2z"/>
  <path d="M30 14v5h5"/>
  <!-- upload arrow -->
  <path d="M100 30v-12m-5 5l5-5 5 5"/>
  <rect x="93" y="30" width="14" height="3" rx="1.5"/>
  <!-- nyy text -->
  <text x="55" y="85" font-family="monospace" font-size="14" font-weight="bold" fill="#c4956a" stroke="none">nyy</text>
  <!-- cloud -->
  <path d="M110 100a7 7 0 0 1 0-14h1a9 9 0 0 1 17 5 6 6 0 0 1-3 11h-15z"/>
  <!-- link chain -->
  <path d="M20 110a5 5 0 0 1 7 0l3 3a5 5 0 0 1 0 7m-5-5a5 5 0 0 0-7 0l-3 3a5 5 0 0 0 0 7"/>
  <!-- folder -->
  <path d="M60 130h14a2 2 0 0 1 2 2v9a2 2 0 0 1-2 2H56a2 2 0 0 1-2-2v-11a2 2 0 0 1 2-2h2l2-2h4z"/>
</svg>
