<svg xmlns="http://www.w3.org/2000/svg" width="200" height="100" fill="none" stroke="#c4956a" stroke-width="1.1" stroke-linecap="round" stroke-linejoin="round">
  <!-- row: file, arrow-up, nyy, cloud, share -->
  <path d="M15 20h8l4 4v10a1.5 1.5 0 0 1-1.5 1.5h-11A1.5 1.5 0 0 1 13 34V21.5A1.5 1.5 0 0 1 15 20z"/>
  <path d="M23 20v4h4"/>
  <path d="M55 34v-10m-4 4l4-4 4 4"/>
  <text x="80" y="32" font-family="monospace" font-size="11" font-weight="bold" fill="#c4956a" stroke="none">nyy</text>
  <path d="M130 28a5 5 0 0 1 0-10h.8a7 7 0 0 1 13.2 3.5 4.5 4.5 0 0 1-2 8.5h-12z"/>
  <circle cx="170" cy="25" r="2.5"/><circle cx="182" cy="18" r="2.5"/><circle cx="182" cy="32" r="2.5"/>
  <line x1="172" y1="24" x2="180" y2="19"/><line x1="172" y1="26" x2="180" y2="31"/>
  <!-- row 2 offset: folder, lock, qr, download, nyy dot -->
  <path d="M25 65h11a1.5 1.5 0 0 1 1.5 1.5v8A1.5 1.5 0 0 1 36 76H22a1.5 1.5 0 0 1-1.5-1.5V66.5A1.5 1.5 0 0 1 22 65h1.5l1.5-2h3z"/>
  <rect x="65" y="62" width="10" height="12" rx="2"/><path d="M68 62v-3a4 4 0 0 1 8 0v3"/>
  <rect x="110" y="58" width="14" height="14" rx="1.5"/><rect x="112" y="60" width="4" height="4" fill="#c4956a" stroke="none"/><rect x="118" y="60" width="4" height="4" fill="#c4956a" stroke="none"/><rect x="112" y="66" width="4" height="4" fill="#c4956a" stroke="none"/>
  <path d="M160 58v10m-4-4l4 4 4-4"/>
  <circle cx="185" cy="65" r="4" fill="#c4956a" stroke="none" opacity="0.5"/>
</svg>
