<svg xmlns="http://www.w3.org/2000/svg" width="180" height="180" fill="none" stroke="#c4956a" stroke-width="1" stroke-linecap="round" stroke-linejoin="round">
  <!-- large sparse layout with rotated elements -->
  <!-- big file icon center -->
  <g transform="translate(70,60) rotate(8)">
    <path d="M0 0h14l6 6v18a2 2 0 0 1-2 2H0a2 2 0 0 1-2-2V2a2 2 0 0 1 2-2z"/>
    <path d="M14 0v6h6"/>
    <path d="M4 14h10M4 18h7"/>
  </g>
  <!-- small upload top-right -->
  <path d="M145 25v-10m-3 3l3-3 3 3"/>
  <!-- nyy brand mark bottom-left -->
  <text x="20" y="155" font-family="monospace" font-size="16" font-weight="bold" fill="#c4956a" stroke="none" opacity="0.7">nyy</text>
  <!-- cloud top-left -->
  <path d="M25 35a5 5 0 0 1 0-10h.5a7 7 0 0 1 13 3.5 4.5 4.5 0 0 1-2 6.5H25z"/>
  <!-- lock bottom-right -->
  <rect x="135" y="140" width="12" height="14" rx="2"/>
  <path d="M138 140v-4a5 5 0 0 1 10 0v4"/>
  <circle cx="143" cy="149" r="1.5" fill="#c4956a" stroke="none"/>
  <!-- share nodes scattered -->
  <circle cx="30" cy="95" r="2.5"/><circle cx="42" cy="85" r="2.5"/><circle cx="42" cy="105" r="2.5"/>
  <line x1="32" y1="94" x2="40" y2="86"/><line x1="32" y1="96" x2="40" y2="104"/>
</svg>
