<svg xmlns="http://www.w3.org/2000/svg" width="100" height="100" fill="none" stroke="#c4956a" stroke-width="1.2" stroke-linecap="round" stroke-linejoin="round">
  <!-- tight grid: 2x2 icons with nyy center -->
  <!-- top-left: upload -->
  <path d="M18 30v-12m-4 4l4-4 4 4"/>
  <!-- top-right: file -->
  <path d="M65 10h9l5 5v11a2 2 0 0 1-2 2H65a2 2 0 0 1-2-2V12a2 2 0 0 1 2-2z"/>
  <path d="M74 10v5h5"/>
  <!-- center: nyy -->
  <text x="35" y="55" font-family="monospace" font-size="13" font-weight="bold" fill="#c4956a" stroke="none">nyy</text>
  <!-- bottom-left: cloud -->
  <path d="M12 82a5 5 0 0 1 0-10h.5a7 7 0 0 1 13 3 4.5 4.5 0 0 1-2 7H12z"/>
  <!-- bottom-right: folder -->
  <path d="M68 72h12a2 2 0 0 1 2 2v8a2 2 0 0 1-2 2H64a2 2 0 0 1-2-2V74a2 2 0 0 1 2-2h2l1.5-2h3z"/>
</svg>
