<svg xmlns="http://www.w3.org/2000/svg" width="140" height="80" fill="none" stroke="#c4956a" stroke-width="1" stroke-linecap="round" stroke-linejoin="round">
  <!-- horizontal strip: icons in a row with slight vertical offsets -->
  <!-- file -->
  <path d="M10 20h7l4 4v9a1.5 1.5 0 0 1-1.5 1.5H10A1.5 1.5 0 0 1 8.5 33V21.5A1.5 1.5 0 0 1 10 20z"/>
  <path d="M17 20v4h4"/>
  <!-- arrow up -->
  <path d="M40 38v-14m-3 3l3-3 3 3"/>
  <!-- nyy -->
  <text x="55" y="35" font-family="sans-serif" font-size="11" font-weight="700" fill="#c4956a" stroke="none" letter-spacing="1">nyy</text>
  <!-- cloud -->
  <path d="M95 32a4.5 4.5 0 0 1 0-9h.5a6 6 0 0 1 11.5 3 4 4 0 0 1-1.5 6H95z"/>
  <!-- share -->
  <circle cx="125" cy="28" r="2"/><circle cx="133" cy="22" r="2"/><circle cx="133" cy="34" r="2"/>
  <line x1="127" y1="27" x2="131" y2="23"/><line x1="127" y1="29" x2="131" y2="33"/>
  <!-- second row offset -->
  <!-- folder -->
  <path d="M20 55h9a1.5 1.5 0 0 1 1.5 1.5v6A1.5 1.5 0 0 1 29 64H17a1.5 1.5 0 0 1-1.5-1.5V56.5A1.5 1.5 0 0 1 17 55h1.5l1-1.5h2z"/>
  <!-- lock -->
  <rect x="50" y="52" width="9" height="11" rx="1.5"/><path d="M52 52v-3a3.5 3.5 0 0 1 7 0v3"/>
  <!-- download -->
  <path d="M82 50v12m-3-3l3 3 3-3"/>
  <!-- qr mini -->
  <rect x="105" y="50" width="12" height="12" rx="1"/><rect x="107" y="52" width="3.5" height="3.5" fill="#c4956a" stroke="none"/><rect x="112" y="52" width="3.5" height="3.5" fill="#c4956a" stroke="none"/><rect x="107" y="57" width="3.5" height="3.5" fill="#c4956a" stroke="none"/>
</svg>
