<svg xmlns="http://www.w3.org/2000/svg" width="150" height="150" fill="none" stroke="#c4956a" stroke-width="1" stroke-linecap="round" stroke-linejoin="round">
  <!-- diamond/diagonal grid arrangement -->
  <!-- center diamond: nyy -->
  <text x="60" y="80" font-family="monospace" font-size="12" font-weight="bold" fill="#c4956a" stroke="none">nyy</text>
  <!-- top: upload -->
  <path d="M75 20v-10m-4 4l4-4 4 4"/>
  <!-- right: file -->
  <path d="M120 60h8l4 4v10a1.5 1.5 0 0 1-1.5 1.5H120a1.5 1.5 0 0 1-1.5-1.5V61.5a1.5 1.5 0 0 1 1.5-1.5z"/>
  <path d="M128 60v4h4"/>
  <!-- bottom: cloud -->
  <path d="M65 125a5 5 0 0 1 0-10h.5a7 7 0 0 1 13 3 4.5 4.5 0 0 1-2 7H65z"/>
  <!-- left: share -->
  <circle cx="20" cy="70" r="2.5"/><circle cx="32" cy="62" r="2.5"/><circle cx="32" cy="78" r="2.5"/>
  <line x1="22" y1="69" x2="30" y2="63"/><line x1="22" y1="71" x2="30" y2="77"/>
  <!-- corners: small dots -->
  <circle cx="10" cy="10" r="2" fill="#c4956a" stroke="none" opacity="0.5"/>
  <circle cx="140" cy="10" r="2" fill="#c4956a" stroke="none" opacity="0.5"/>
  <circle cx="10" cy="140" r="2" fill="#c4956a" stroke="none" opacity="0.5"/>
  <circle cx="140" cy="140" r="2" fill="#c4956a" stroke="none" opacity="0.5"/>
  <!-- diagonal accents -->
  <path d="M40 30l5 5M105 110l5 5" opacity="0.6"/>
</svg>
