<svg xmlns="http://www.w3.org/2000/svg" width="200" height="200" fill="none" stroke="#c4956a" stroke-width="0.9" stroke-linecap="round" stroke-linejoin="round">
  <!-- scattered random positions with varied rotations -->
  <g transform="translate(25,20) rotate(-12 15 15)">
    <path d="M5 0h8l4 4v10a1.5 1.5 0 0 1-1.5 1.5H5A1.5 1.5 0 0 1 3.5 14V1.5A1.5 1.5 0 0 1 5 0z"/>
    <path d="M13 0v4h4"/>
  </g>
  <g transform="translate(130,15) rotate(5)">
    <path d="M0 12v-10m-3 3l3-3 3 3"/>
  </g>
  <text x="80" y="55" font-family="monospace" font-size="14" font-weight="bold" fill="#c4956a" stroke="none" transform="rotate(-5 80 55)">nyy</text>
  <g transform="translate(155,70) rotate(10)">
    <path d="M0 10a5 5 0 0 1 0-10h.5a6.5 6.5 0 0 1 12.5 3 4 4 0 0 1-2 7H0z"/>
  </g>
  <g transform="translate(20,90) rotate(-8)">
    <circle cx="0" cy="0" r="2.5"/><circle cx="12" cy="-7" r="2.5"/><circle cx="12" cy="7" r="2.5"/>
    <line x1="2" y1="-1" x2="10" y2="-6"/><line x1="2" y1="1" x2="10" y2="6"/>
  </g>
  <g transform="translate(90,120) rotate(15)">
    <path d="M0 0h10a1.5 1.5 0 0 1 1.5 1.5v7A1.5 1.5 0 0 1 10 10H-3a1.5 1.5 0 0 1-1.5-1.5V1.5A1.5 1.5 0 0 1-3 0h1.5l1-1.5h2.5z"/>
  </g>
  <g transform="translate(40,155) rotate(-3)">
    <rect x="0" y="0" width="10" height="12" rx="2"/><path d="M2 0v-3a4 4 0 0 1 8 0v3"/>
  </g>
  <g transform="translate(150,155) rotate(7)">
    <path d="M0 0v10m-3-3l3 3 3-3"/>
  </g>
  <circle cx="170" cy="30" r="2.5" fill="#c4956a" stroke="none" opacity="0.4"/>
  <circle cx="60" cy="180" r="2" fill="#c4956a" stroke="none" opacity="0.4"/>
</svg>
