<svg xmlns="http://www.w3.org/2000/svg" width="160" height="160" fill="none" stroke="#c4956a" stroke-width="0.8" stroke-linecap="round" stroke-linejoin="round">
  <!-- outline-only, very thin, elegant -->
  <!-- large file outline -->
  <path d="M50 20h20l10 10v40a3 3 0 0 1-3 3H50a3 3 0 0 1-3-3V23a3 3 0 0 1 3-3z"/>
  <path d="M70 20v10h10"/>
  <path d="M55 45h18M55 52h12M55 59h15"/>
  <!-- nyy watermark -->
  <text x="55" y="90" font-family="monospace" font-size="18" font-weight="bold" fill="#c4956a" stroke="none" opacity="0.5">nyy</text>
  <!-- small icons around -->
  <path d="M20 50v-8m-2.5 2.5l2.5-2.5 2.5 2.5"/>
  <path d="M130 40a4 4 0 0 1 0-8h.5a5.5 5.5 0 0 1 10.5 2.5 3.5 3.5 0 0 1-1.5 5.5H130z"/>
  <circle cx="130" cy="110" r="2"/><circle cx="140" cy="104" r="2"/><circle cx="140" cy="116" r="2"/>
  <line x1="132" y1="109" x2="138" y2="105"/><line x1="132" y1="111" x2="138" y2="115"/>
  <path d="M20 120h8a1.5 1.5 0 0 1 1.5 1.5v6A1.5 1.5 0 0 1 28 129H17a1.5 1.5 0 0 1-1.5-1.5V121.5A1.5 1.5 0 0 1 17 120h1.5l1-1.5h2z"/>
</svg>
