<svg xmlns="http://www.w3.org/2000/svg" width="110" height="110" fill="none" stroke="#c4956a" stroke-width="1" stroke-linecap="round" stroke-linejoin="round">
  <!-- filled/semi-filled style icons -->
  <!-- file with fill -->
  <rect x="15" y="12" width="18" height="22" rx="2" fill="#c4956a" opacity="0.12"/>
  <path d="M15 12h12l6 6v16a2 2 0 0 1-2 2H15a2 2 0 0 1-2-2V14a2 2 0 0 1 2-2z"/>
  <path d="M27 12v6h6"/>
  <!-- cloud with fill -->
  <path d="M65 40a5 5 0 0 1 0-10h.5a7 7 0 0 1 13 3 4.5 4.5 0 0 1-2 7H65z" fill="#c4956a" opacity="0.1"/>
  <path d="M65 40a5 5 0 0 1 0-10h.5a7 7 0 0 1 13 3 4.5 4.5 0 0 1-2 7H65z"/>
  <!-- upload with circle bg -->
  <circle cx="30" cy="70" r="12" fill="#c4956a" opacity="0.08"/>
  <path d="M30 76v-12m-4 4l4-4 4 4"/>
  <!-- nyy badge -->
  <rect x="58" y="65" width="35" height="18" rx="9" fill="#c4956a" opacity="0.1"/>
  <text x="63" y="78" font-family="monospace" font-size="11" font-weight="bold" fill="#c4956a" stroke="none">nyy</text>
  <!-- folder with fill -->
  <path d="M15 92h12a1.5 1.5 0 0 1 1.5 1.5v7A1.5 1.5 0 0 1 27 102H12a1.5 1.5 0 0 1-1.5-1.5V93.5A1.5 1.5 0 0 1 12 92h1.5l1.5-2h3z" fill="#c4956a" opacity="0.1"/>
  <path d="M15 92h12a1.5 1.5 0 0 1 1.5 1.5v7A1.5 1.5 0 0 1 27 102H12a1.5 1.5 0 0 1-1.5-1.5V93.5A1.5 1.5 0 0 1 12 92h1.5l1.5-2h3z"/>
</svg>
