<svg xmlns="http://www.w3.org/2000/svg" width="160" height="100" fill="none" stroke="#c4956a" stroke-width="1" stroke-linecap="round" stroke-linejoin="round">
  <!-- playful: icons at various sizes, some big some tiny -->
  <!-- big file -->
  <path d="M10 15h14l7 7v20a2.5 2.5 0 0 1-2.5 2.5H10A2.5 2.5 0 0 1 7.5 42V17.5A2.5 2.5 0 0 1 10 15z"/>
  <path d="M24 15v7h7"/><path d="M14 32h10M14 37h7"/>
  <!-- tiny upload -->
  <path d="M50 22v-6m-2 2l2-2 2 2"/>
  <!-- medium cloud -->
  <path d="M60 50a5 5 0 0 1 0-10h.5a7 7 0 0 1 13 3 4.5 4.5 0 0 1-2 7H60z"/>
  <!-- big nyy -->
  <text x="90" y="40" font-family="monospace" font-size="18" font-weight="bold" fill="#c4956a" stroke="none" opacity="0.7">nyy</text>
  <!-- tiny folder -->
  <path d="M95 65h6a1 1 0 0 1 1 1v4a1 1 0 0 1-1 1H93a1 1 0 0 1-1-1V66a1 1 0 0 1 1-1h1l.5-1h2z"/>
  <!-- medium share -->
  <circle cx="140" cy="60" r="3"/><circle cx="152" cy="52" r="3"/><circle cx="152" cy="68" r="3"/>
  <line x1="143" y1="59" x2="149" y2="53"/><line x1="143" y1="61" x2="149" y2="67"/>
  <!-- tiny lock -->
  <rect x="45" y="70" width="6" height="7" rx="1"/><path d="M46.5 70v-2a2.5 2.5 0 0 1 5 0v2"/>
  <!-- tiny link -->
  <path d="M15 70a3 3 0 0 1 4 0l1.5 1.5a3 3 0 0 1 0 4m-2.5-2.5a3 3 0 0 0-4 0L12.5 74.5a3 3 0 0 0 0 4"/>
</svg>
