<svg width="230" height="116" viewBox="24 12 230 116" fill="none" xmlns="http://www.w3.org/2000/svg" role="img" aria-label="拿呀呀">
  <defs>
    <path id="smWord" d="M1.9140625 -6.4599609375H31.9921875V-9.3310546875H6.8359375V-14.2529296875H31.9921875V-17.1240234375Q20.029296875 -16.9873046875 6.2890625 -16.9189453125Q5.60546875 -19.8583984375 4.921875 -22.5244140625Q40.126953125 -22.3193359375 62.890625 -23.4130859375L63.916015625 -17.8759765625Q53.73046875 -17.5341796875 41.2890625 -17.2607421875V-14.2529296875H63.30078125V-9.3310546875H41.2890625V-6.4599609375H68.0859375V-0.7177734375H41.2890625V-0.5126953125Q41.15234375 7.8955078125 33.22265625 8.7841796875Q28.984375 9.1259765625 19.27734375 9.1259765625Q18.45703125 4.3408203125 17.705078125 1.4013671875Q25.29296875 1.7431640625 27.822265625 1.6748046875Q31.240234375 1.5380859375 31.85546875 -0.7177734375H1.9140625ZM43.818359375 -58.1396484375 41.494140625 -56.2939453125Q51.953125 -48.9111328125 69.1796875 -45.5615234375Q68.0859375 -43.5107421875 66.103515625 -37.7685546875Q57.900390625 -39.7509765625 51.1328125 -42.5537109375V-41.5966796875H19.6875V-42.8955078125Q13.193359375 -40.0244140625 4.853515625 -37.3583984375Q2.802734375 -41.9384765625 1.09375 -45.0146484375Q21.46484375 -49.5947265625 30.625 -58.1396484375ZM11.552734375 -38.7939453125H58.447265625V-25.0537109375H11.552734375ZM49.833984375 -30.2490234375V-33.5986328125H20.166015625V-30.2490234375ZM34.931640625 -51.6455078125Q30.830078125 -48.6376953125 27.275390625 -46.6552734375H42.65625Q38.896484375 -48.8427734375 34.931640625 -51.6455078125Z M109.443359375 -31.8896484375H120.927734375V-45.6982421875H98.4375V-54.3115234375H138.49609375V-45.6982421875H130.224609375V-31.8896484375H138.49609375V-23.4130859375H130.224609375V-2.8369140625Q130.224609375 2.2900390625 128.0712890625 5.0244140625Q125.91796875 7.7587890625 122.14111328125 8.134765625Q118.3642578125 8.5107421875 111.083984375 8.5107421875Q110.1953125 3.4521484375 109.033203125 -0.8544921875Q113.7158203125 -0.3076171875 116.962890625 -0.3076171875Q120.927734375 -0.3076171875 120.927734375 -4.6142578125V-19.2431640625Q111.8359375 -4.8193359375 96.318359375 4.8193359375Q93.720703125 1.1962890625 90.302734375 -2.4951171875Q92.2509765625 -3.5888671875 94.0966796875 -4.7509765625H82.3046875V0.2392578125H73.96484375V-53.2861328125H96.044921875V-6.015625Q106.77734375 -13.26171875 113.955078125 -23.4130859375H98.232421875L102.8125 -43.2373046875H111.904296875ZM87.841796875 -13.3642578125V-44.6728515625H82.3046875V-13.3642578125Z"/>
    <path id="smSup" d="M153.625 -45.15234375H161.32421875V-42.0H149.25390625V-43.34765625Q149.25390625 -44.765625 149.775390625 -45.9375Q150.296875 -47.109375 151.2109375 -48.123046875Q152.125 -49.13671875 154.046875 -50.49609375Q155.8046875 -51.80859375 156.5078125 -52.822265625Q157.2109375 -53.8359375 157.2109375 -54.97265625Q157.2109375 -57.421875 154.5390625 -57.421875Q152.1953125 -57.421875 150.0625 -55.546875V-58.921875Q152.44140625 -60.45703125 155.40625 -60.45703125Q158.125 -60.45703125 159.70703125 -59.068359375Q161.2890625 -57.6796875 161.2890625 -55.2421875Q161.2890625 -53.8828125 160.83203125 -52.787109375Q160.375 -51.69140625 159.5078125 -50.73046875Q158.640625 -49.76953125 156.73046875 -48.421875Q154.890625 -47.109375 154.2578125 -46.39453125Q153.625 -45.6796875 153.625 -45.15234375Z"/>
  </defs>
  <g transform="translate(46 98) skewY(-3)" fill="none" stroke="#FF8A3D" stroke-linejoin="round" stroke-linecap="round" stroke-width="1.5">
    <use href="#smWord"/>
    <use href="#smSup"/>
  </g>
</svg>